<?xml version="1.0" encoding="UTF-8"?>
<svg xmlns="http://www.w3.org/2000/svg" xmlns:xlink="http://www.w3.org/1999/xlink" width="20px" height="20px" viewBox="0 0 20 20" version="1.1">
<g id="surface1">
<path style=" stroke:none;fill-rule:nonzero;fill:rgb(16.078431%,10.980392%,51.764706%);fill-opacity:1;" d="M 10 12.492188 C 8.621094 12.492188 7.5 13.613281 7.5 14.992188 L 7.5 19.992188 L 12.5 19.992188 L 12.5 14.992188 C 12.5 13.613281 11.378906 12.492188 10 12.492188 Z M 10 12.492188 "/>
<path style=" stroke:none;fill-rule:nonzero;fill:rgb(16.078431%,10.980392%,51.764706%);fill-opacity:1;" d="M 14.167969 14.992188 L 14.167969 19.992188 L 17.5 19.992188 C 18.878906 19.992188 20 18.875 20 17.492188 L 20 9.894531 C 20 9.460938 19.832031 9.042969 19.53125 8.734375 L 12.449219 1.078125 C 11.199219 -0.273438 9.089844 -0.359375 7.738281 0.890625 C 7.675781 0.949219 7.613281 1.011719 7.554688 1.078125 L 0.484375 8.730469 C 0.175781 9.042969 0 9.464844 0 9.90625 L 0 17.492188 C 0 18.875 1.121094 19.992188 2.5 19.992188 L 5.832031 19.992188 L 5.832031 14.992188 C 5.847656 12.722656 7.683594 10.867188 9.898438 10.8125 C 12.1875 10.757812 14.148438 12.644531 14.167969 14.992188 Z M 14.167969 14.992188 "/>
<path style=" stroke:none;fill-rule:nonzero;fill:rgb(16.078431%,10.980392%,51.764706%);fill-opacity:1;" d="M 10 12.492188 C 8.621094 12.492188 7.5 13.613281 7.5 14.992188 L 7.5 19.992188 L 12.5 19.992188 L 12.5 14.992188 C 12.5 13.613281 11.378906 12.492188 10 12.492188 Z M 10 12.492188 "/>
</g>
</svg>
